# xmcd
#
# Track frame offsets:
#	150
#	11724
#	25262
#	35206
#	48493
#	61376
#	73465
#	86669
#	100757
#	112400
#	126091
#	138898
#	151172
#	165628
#	178609
#	191917
#	204267
#	216708
#
# Disc length: 2992 seconds
#
# Revision: 1
# Processed by: cddbd v1.5.2PL0 Copyright (c) Steve Scherf et al.
# Submitted via: audiograbber 1.83.01
#
DISCID=130bae12
DTITLE=Verschiedene Interpreten - Tennessee Waltz
DYEAR=2007
DGENRE=Country
TTITLE0=Marty Robbins - Pretty Words
TTITLE1=Merle Travis - Divorce Me C.O.D.
TTITLE2=Moon Mullican - I Sail My Ship Alone
TTITLE3=Patti Page - Tennessee Waltz
TTITLE4=Pee Wee King - Slow Poke
TTITLE5=Ray Price - Release Me
TTITLE6=Red Foley - Smoke On The Water
TTITLE7=Rex Allen - Crying In The Chapel
TTITLE8=Roy Acuff - Waltz Of The Wind
TTITLE9=Roy Rogers and The Sons Of The Pioneers - Pecos Bill
TTITLE10=Spade Cooley - Shame On You
TTITLE11=Ted Daffan´s Texans - No Letter Today
TTITLE12=Tennessee Ernie Ford - The Cry Of The Wild Goose
TTITLE13=Tex Ritter - You Will Have To Pay Her
TTITLE14=Tex Williams - Never Trust A Woman
TTITLE15=Webb Pierce - Back Street Affair
TTITLE16=The Andrews Sisters with Ernest Tubb - Don´t Rob Another Man´s Castle
TTITLE17=Bill Monroe and His Bluegrass Boys - Footprints In The Snow
EXTD=
EXTT0=
EXTT1=
EXTT2=
EXTT3=
EXTT4=
EXTT5=
EXTT6=
EXTT7=
EXTT8=
EXTT9=
EXTT10=
EXTT11=
EXTT12=
EXTT13=
EXTT14=
EXTT15=
EXTT16=
EXTT17=
PLAYORDER=
